<svg width="522" height="433" viewBox="0 0 522 433" fill="none" xmlns="http://www.w3.org/2000/svg">
<g clip-path="url(#clip0)">
<path d="M442.718 347.623C442.718 373.75 458.251 382.874 477.41 382.874C477.857 382.874 478.3 382.869 478.741 382.857C479.629 382.838 480.509 382.799 481.377 382.737C498.67 381.514 512.105 371.92 512.105 347.623C512.105 322.479 479.978 290.75 477.555 288.394L477.55 288.392C477.459 288.3 477.41 288.255 477.41 288.255C477.41 288.255 442.718 321.493 442.718 347.623Z" fill="#184269"/>
<path d="M478.676 378.876L465.986 361.147L478.708 380.822L478.741 382.857C479.629 382.838 480.509 382.799 481.377 382.737L480.01 356.597L480.019 356.395L479.995 356.356L479.867 353.887L492.62 334.161L479.829 352.035L479.798 352.558L478.763 332.808L489.681 312.427L478.631 329.339L477.555 288.394L477.55 288.255V288.392L477.729 320.68L466.862 307.879L477.775 323.46L478.062 341.144L467.913 324.174L478.105 343.748L478.264 353.578L463.532 329.956L478.319 357.009L478.676 378.876Z" fill="#F2F2F2"/>
<g opacity="0.7">
<path opacity="0.7" d="M40.3346 164.488V158.196H71.7968V187.298C71.7968 188.926 71.1505 190.486 69.9999 191.637C68.8493 192.787 67.2888 193.434 65.6617 193.434H46.4698C44.8426 193.434 43.2821 192.787 42.1316 191.637C40.981 190.486 40.3346 188.926 40.3346 187.298V180.849C38.1651 180.849 36.0844 179.987 34.5504 178.453C33.0163 176.919 32.1544 174.838 32.1544 172.668C32.1544 170.499 33.0163 168.418 34.5504 166.884C36.0844 165.35 38.1651 164.488 40.3346 164.488ZM40.3346 177.702V167.635C38.9995 167.635 37.7192 168.165 36.7751 169.109C35.8311 170.053 35.3007 171.333 35.3007 172.668C35.3007 174.004 35.8311 175.284 36.7751 176.228C37.7192 177.172 38.9995 177.702 40.3346 177.702Z" fill="url(#paint0_linear)"/>
</g>
<path d="M41.3469 165.473C42.8241 165.473 44.2681 165.911 45.4964 166.732C46.7246 167.553 47.6819 168.719 48.2472 170.084C48.8125 171.449 48.9604 172.95 48.6722 174.399C48.384 175.848 47.6727 177.179 46.6282 178.223C45.5836 179.268 44.2528 179.979 42.804 180.267C41.3552 180.556 39.8534 180.408 38.4887 179.842C37.1239 179.277 35.9575 178.32 35.1368 177.092C34.3161 175.863 33.8781 174.419 33.8781 172.942C33.8781 170.961 34.665 169.061 36.0656 167.661C37.4663 166.26 39.3661 165.473 41.3469 165.473ZM41.3469 177.538C42.256 177.538 43.1446 177.269 43.9004 176.764C44.6563 176.259 45.2454 175.541 45.5933 174.701C45.9411 173.861 46.0322 172.937 45.8548 172.045C45.6775 171.154 45.2397 170.335 44.5969 169.692C43.9541 169.049 43.1352 168.612 42.2436 168.434C41.352 168.257 40.4279 168.348 39.588 168.696C38.7482 169.044 38.0303 169.633 37.5253 170.389C37.0203 171.144 36.7507 172.033 36.7507 172.942C36.7507 174.161 37.2349 175.33 38.0969 176.192C38.9588 177.054 40.1279 177.538 41.3469 177.538Z" fill="#3472AB"/>
<path d="M70.0733 159.728H41.3469V186.27C41.3469 187.764 41.9401 189.196 42.9962 190.252C44.0522 191.308 45.4845 191.901 46.978 191.901H64.4422C65.9356 191.901 67.3679 191.308 68.424 190.252C69.48 189.196 70.0733 187.764 70.0733 186.27V159.728Z" fill="#417EB6"/>
<path opacity="0.1" d="M46.5177 159.728V186.3C46.5177 187.785 47.1078 189.21 48.1583 190.261C49.2088 191.311 50.6336 191.901 52.1193 191.901H49.2466C47.761 191.901 46.3362 191.311 45.2857 190.261C44.2352 189.21 43.645 187.785 43.645 186.3V159.728H46.5177Z" fill="black"/>
<path d="M64.4045 138.311C64.6502 138.319 64.8912 138.381 65.1105 138.492C65.3297 138.604 65.5217 138.762 65.6731 138.956C66.0499 139.639 65.367 140.409 64.7439 140.878C63.5927 141.745 62.3794 142.597 61.5969 143.808C60.8144 145.018 60.5686 146.707 61.4239 147.867C62.5408 149.382 65.2055 149.707 65.4634 151.572C65.629 152.768 64.5944 153.789 63.546 154.39C60.9585 155.872 57.6227 156.268 55.7485 158.587C54.9731 156.993 53.2389 156.071 51.5103 155.677C49.7816 155.284 47.9856 155.313 46.2329 155.046C45.9466 155.041 45.6656 154.968 45.4127 154.834C45.1597 154.7 44.9419 154.508 44.7768 154.274C44.2869 153.28 45.6832 152.087 45.2013 151.089C44.8345 150.329 43.757 150.388 42.9701 150.084C41.6888 149.589 41.1605 147.94 41.5241 146.615C41.8878 145.29 42.915 144.255 43.9951 143.406C46.9061 141.119 50.4064 139.774 53.9467 138.806C55.5933 138.356 57.5262 137.65 59.2365 137.582C60.8874 137.516 62.7704 138.032 64.4045 138.311Z" fill="#EEEEEE"/>
<path d="M266.026 198.686L326.091 385.811" stroke="#E0E0E0" stroke-width="8" stroke-miterlimit="10"/>
<g opacity="0.7">
<path opacity="0.7" d="M219.488 406.886C226.876 407.314 233.458 413.504 233.458 413.504L236.641 405.609L236.901 405.693C235.346 398.887 203.711 258.581 235.379 246.485C259.713 237.19 285.524 225.688 305.747 226.121V192.976H277.396V191.794H254.951C250.648 188.721 256.9 186.608 263.888 185.287C263.603 184.961 263.352 184.607 263.139 184.23L227.191 119.735C227.191 119.735 218.922 106.15 224.237 99.6533C229.553 93.1562 237.232 116.191 237.232 116.191L266.764 158.718C266.764 158.718 296.57 127.651 315.532 112.202C317.636 110.116 320.01 108.322 322.59 106.867C326.051 104.525 328.671 103.312 329.963 103.788C329.977 103.793 329.987 103.801 330 103.806C332.874 103.01 335.841 102.607 338.823 102.607H341.185V97.7603C335.893 96.0124 331.051 93.1185 327.006 89.2849C322.96 85.4513 319.81 80.7724 317.78 75.5817C314.448 70.0632 312.413 63.8598 311.828 57.4398C311.244 51.0199 312.126 44.5511 314.407 38.5217C314.054 38.48 313.715 38.3625 313.412 38.1773C312.342 37.4887 312.237 35.9823 312.34 34.7144C312.728 30.4587 314.146 26.3616 316.473 22.7773C318.8 19.1931 321.965 16.2295 325.694 14.1428C328.687 12.5064 332.114 11.379 334.321 8.77826C336.217 6.54355 337.014 3.41805 339.308 1.59468C342.034 -0.571508 345.972 -0.199112 349.317 0.767471C353.039 1.84448 356.566 3.50864 359.764 5.69716C363.382 8.17525 366.647 11.3589 370.813 12.7306C373.772 13.7052 376.982 13.6857 379.961 14.6014C382.246 15.3257 384.331 16.5749 386.048 18.2491C387.764 19.9233 389.065 21.976 389.846 24.243C390.605 26.6784 390.892 29.2361 390.692 31.779C392.503 34.8067 393.929 38.0492 394.935 41.4308C395.158 41.5512 395.382 41.669 395.602 41.7931L394.955 41.5019C397.214 49.1275 397.289 57.2339 395.171 64.9C393.054 72.5661 388.828 79.4846 382.975 84.8694C378.35 90.8905 372.022 95.3819 364.811 97.7603V103.623C369.955 104.733 374.863 106.743 379.308 109.56L379.314 109.552C379.314 109.552 379.691 109.786 380.336 110.22C380.401 110.263 380.466 110.307 380.53 110.35C384.901 113.317 399.546 124.156 399.051 135.868C399.071 136.318 399.068 136.77 399.044 137.223C399.843 140.608 400.248 144.074 400.25 147.552V232.549C400.262 241.941 397.105 251.062 391.292 258.438C403.617 261.201 411.472 265.379 411.472 270.055C411.411 270.446 411.411 270.845 411.472 271.236C411.472 279.555 386.615 286.298 355.952 286.298C352.244 286.298 348.623 286.198 345.119 286.01L310.472 314.058L365.993 403.246C365.993 403.246 384.303 417.422 370.127 422.147C355.952 426.872 327.01 430.416 327.01 430.416C327.01 430.416 322.285 422.147 328.782 418.603C335.279 415.059 344.139 416.831 344.139 416.831L342.957 409.743C342.957 409.743 246.682 327.052 266.764 298.701C270.606 293.277 274.448 287.681 278.323 282.172L263.167 283.553L259.718 413.361L259.287 413.22C260.153 415.77 266.276 435.017 252.703 431.76C238.174 428.273 211.736 415.974 211.736 415.974C211.736 415.974 212.099 406.457 219.488 406.886ZM277.396 183.525L305.747 175.294V151.04L274.932 183.75C276.447 183.598 277.396 183.525 277.396 183.525Z" fill="url(#paint1_linear)"/>
</g>
<path d="M353.235 98.7699C330.27 98.7699 311.652 80.1524 311.652 57.1865C311.652 34.2206 330.27 15.6031 353.235 15.6031C376.201 15.6031 394.819 34.2206 394.819 57.1865C394.819 80.1524 376.201 98.7699 353.235 98.7699Z" fill="black"/>
<path d="M305.877 152.482L274.142 186.169C273.474 186.879 272.648 187.42 271.731 187.751C270.814 188.081 269.832 188.191 268.865 188.071C267.898 187.951 266.973 187.604 266.165 187.06C265.356 186.515 264.688 185.788 264.214 184.937L229.063 121.872L238.881 118.406L267.758 159.99C267.758 159.99 321.971 103.485 329.556 106.278C337.141 109.071 305.877 152.482 305.877 152.482Z" fill="#99CEFF"/>
<path d="M366.519 269.146L413.3 390.431" stroke="#BDBDBD" stroke-width="5" stroke-miterlimit="10"/>
<path d="M343.417 269.146L296.636 390.431" stroke="#BDBDBD" stroke-width="5" stroke-miterlimit="10"/>
<path d="M354.968 284.74C324.985 284.74 300.679 278.146 300.679 270.013C300.679 261.879 324.985 255.285 354.968 255.285C384.951 255.285 409.258 261.879 409.258 270.013C409.258 278.146 384.951 284.74 354.968 284.74Z" fill="#B84733"/>
<path d="M354.968 283.585C324.985 283.585 300.679 276.991 300.679 268.858C300.679 260.724 324.985 254.13 354.968 254.13C384.951 254.13 409.258 260.724 409.258 268.858C409.258 276.991 384.951 283.585 354.968 283.585Z" fill="#F55F44"/>
<path d="M377.812 295.793L326.59 311.577" stroke="#BDBDBD" stroke-width="5" stroke-miterlimit="10"/>
<path d="M332.124 295.793L383.347 311.577" stroke="#BDBDBD" stroke-width="5" stroke-miterlimit="10"/>
<path d="M354.336 105.123H338.219C329.641 105.123 321.415 108.53 315.35 114.596C309.284 120.661 305.877 128.888 305.877 137.466V222.943H398.284V149.071C398.284 137.415 393.654 126.237 385.412 117.995C377.17 109.753 365.992 105.123 354.336 105.123Z" fill="#99CEFF"/>
<path d="M398.284 222.943H305.877V273.189H357.278C368.154 273.189 378.584 268.869 386.274 261.179C393.964 253.489 398.284 243.059 398.284 232.183V222.943Z" fill="#39447A"/>
<path opacity="0.05" d="M397.036 139.798L340.529 193.488H278.154V185.402L331.866 169.808L377.812 113.07C377.812 113.07 398.676 125.96 397.036 139.798Z" fill="#99CEFF"/>
<path d="M397.036 138.643L340.529 192.332H278.154V184.247L331.866 168.653L377.812 111.915C377.812 111.915 398.676 124.805 397.036 138.643Z" fill="#99CEFF"/>
<path d="M278.154 184.247C278.154 184.247 248.122 186.557 256.208 192.333H278.154V184.247Z" fill="#D6A33A"/>
<path d="M238.881 118.406C238.881 118.406 231.373 95.8821 226.175 102.235C220.977 108.588 229.063 121.872 229.063 121.872L238.881 118.406Z" fill="#D6A33A"/>
<path opacity="0.05" d="M398.284 222.942V225.638L305.877 225.83V222.942H398.284Z" fill="black"/>
<path d="M326.401 276.391L264.242 282.056L260.869 408.985L238.616 401.74C238.616 401.74 205.334 257.932 237.07 245.81C268.806 233.688 303.112 217.726 323.594 230.735C344.076 243.743 326.401 276.391 326.401 276.391Z" fill="#39447A"/>
<path opacity="0.1" d="M322.625 237.381C322.625 237.381 288.55 254.708 283.93 274.344L322.625 237.381Z" fill="black"/>
<path d="M359.01 272.612L310.497 311.885L364.786 399.094L342.262 405.447C342.262 405.447 248.122 324.591 267.758 296.869C287.395 269.146 307.032 236.804 331.289 236.226C355.546 235.649 359.01 272.612 359.01 272.612Z" fill="#39447A"/>
<path opacity="0.05" d="M282.775 144.974L270.646 165.765L267.758 159.99L282.775 144.974Z" fill="black"/>
<path d="M364.786 399.094C364.786 399.094 382.69 412.956 368.829 417.576C354.968 422.196 326.668 425.662 326.668 425.662C326.668 425.662 322.048 417.576 328.401 414.111C334.754 410.645 343.417 412.378 343.417 412.378L342.262 405.447L364.786 399.094Z" fill="#333333"/>
<path d="M260.353 408.575C260.353 408.575 268.217 430.385 254.01 426.976C239.802 423.566 213.951 411.541 213.951 411.541C213.951 411.541 214.306 402.235 221.531 402.654C228.755 403.072 235.191 409.125 235.191 409.125L238.304 401.405L260.353 408.575Z" fill="#333333"/>
<path d="M340.529 96.4597C340.529 90.0803 345.701 84.9088 352.08 84.9088C358.46 84.9088 363.631 90.0803 363.631 96.4597V108.011C363.631 114.39 358.46 119.562 352.08 119.562C345.701 119.562 340.529 114.39 340.529 108.011V96.4597Z" fill="#C18814"/>
<path opacity="0.05" d="M352.08 86.0638C355.144 86.0638 358.082 87.2808 360.248 89.447C362.414 91.6132 363.631 94.5513 363.631 97.6148V101.539C356.128 104.007 348.032 104.007 340.529 101.539V97.6148C340.529 94.5513 341.746 91.6132 343.913 89.447C346.079 87.2808 349.017 86.0638 352.08 86.0638Z" fill="black"/>
<path d="M352.08 102.235C331.666 102.235 315.117 85.6863 315.117 65.2722C315.117 44.858 331.666 28.3091 352.08 28.3091C372.494 28.3091 389.043 44.858 389.043 65.2722C389.043 85.6863 372.494 102.235 352.08 102.235Z" fill="#D6A33A"/>
<path opacity="0.05" d="M389.043 63.5949C389.043 63.5949 379.803 65.9763 374.605 55.4737C369.407 44.9711 365.364 39.2424 343.995 45.4485C322.625 51.6545 318.327 52.4117 317.3 46.5431C316.598 42.5329 324.196 32.7922 329.079 27.0253C331.461 24.2119 335.348 22.5337 339.502 22.5337H363.631L378.07 29.2172L389.043 38.765L391.354 51.6546L389.043 63.5949Z" fill="black"/>
<path d="M389.043 62.4398C389.043 62.4398 379.803 64.8211 374.605 54.3185C369.407 43.8159 365.364 38.0872 343.995 44.2933C322.625 50.4994 318.327 51.2566 317.3 45.388C316.598 41.3778 324.196 31.6371 329.079 25.8701C331.461 23.0568 335.348 21.3785 339.502 21.3785H363.631L378.07 28.062L389.043 37.6098L391.354 50.4994L389.043 62.4398Z" fill="black"/>
<path d="M385.289 69.8925C383.216 69.8925 381.535 66.531 381.535 62.3844C381.535 58.2378 383.216 54.8763 385.289 54.8763C387.363 54.8763 389.043 58.2378 389.043 62.3844C389.043 66.531 387.363 69.8925 385.289 69.8925Z" fill="#D4A649"/>
<path d="M387.972 43.065C388.829 38.2302 389.671 33.1533 388.111 28.4974C387.347 26.2807 386.075 24.2735 384.397 22.6365C382.718 20.9994 380.68 19.7779 378.445 19.0697C375.532 18.1744 372.394 18.1934 369.499 17.2404C365.426 15.8991 362.233 12.7861 358.696 10.3629C355.569 8.22294 352.12 6.59569 348.481 5.54258C345.21 4.59741 341.359 4.23328 338.694 6.35145C336.45 8.13437 335.671 11.1905 333.817 13.3757C331.659 15.9187 328.308 17.0212 325.382 18.6213C321.735 20.6616 318.641 23.5595 316.365 27.0643C314.09 30.569 312.703 34.5753 312.323 38.7365C312.223 39.9764 312.326 41.4494 313.372 42.1227C314.022 42.4532 314.754 42.5868 315.478 42.5072C330.251 42.296 345.042 42.084 359.754 40.7279C364.327 40.3063 368.91 39.7736 373.5 39.9475C380.603 40.2244 387.539 42.1816 393.74 45.6583" fill="black"/>
<path d="M451.943 372.672H503.066C513.523 372.672 522 381.149 522 391.607V391.607C522 402.064 513.523 410.541 503.066 410.541H451.943C441.486 410.541 433.008 402.064 433.008 391.607C433.008 381.149 441.486 372.672 451.943 372.672Z" fill="#268BE8"/>
<path d="M189.405 237.477C189.18 237.47 188.967 237.375 188.811 237.213C188.655 237.052 188.568 236.836 188.568 236.611C188.568 236.386 188.655 236.171 188.811 236.009C188.967 235.847 189.18 235.753 189.405 235.745C189.629 235.753 189.842 235.847 189.998 236.009C190.154 236.171 190.241 236.386 190.241 236.611C190.241 236.836 190.154 237.052 189.998 237.213C189.842 237.375 189.629 237.47 189.405 237.477Z" fill="url(#paint2_linear)"/>
<path d="M62.2889 198.686L2.22406 412.431" stroke="#E0E0E0" stroke-width="8" stroke-miterlimit="10"/>
<path d="M1.98036 192.426H326.334V205.066H1.98036V192.426Z" fill="#E0E0E0"/>
<path d="M197.009 189.445H242.635C244.708 189.445 246.389 191.126 246.389 193.199V193.199C246.389 195.272 244.708 196.953 242.635 196.953H197.009C194.936 196.953 193.255 195.272 193.255 193.199C193.255 191.126 194.936 189.445 197.009 189.445Z" fill="#4A4A4A"/>
<g opacity="0.7">
<path opacity="0.7" d="M98.2831 105.736H197.748C206.75 105.736 214.047 113.033 214.047 122.034V180.748C214.047 189.75 206.75 197.047 197.748 197.047H98.2831C89.2818 197.047 81.9849 189.75 81.9849 180.748V122.034C81.9849 113.033 89.2818 105.736 98.2831 105.736Z" fill="url(#paint3_linear)"/>
</g>
<path d="M102.089 107.42H196.194C204.753 107.42 211.692 114.359 211.692 122.919V181.548C211.692 190.108 204.753 197.047 196.194 197.047H102.089C93.5291 197.047 86.5902 190.108 86.5902 181.548V122.919C86.5902 114.359 93.5291 107.42 102.089 107.42Z" fill="#3E3F49"/>
<path d="M100.356 107.42H194.461C203.021 107.42 209.959 114.359 209.959 122.919V181.548C209.959 190.108 203.021 197.047 194.461 197.047H100.356C91.7964 197.047 84.8575 190.108 84.8575 181.548V122.919C84.8575 114.359 91.7964 107.42 100.356 107.42Z" fill="#3A3A3A"/>
<path d="M141.564 155.658C139.332 155.658 137.522 153.848 137.522 151.615C137.522 149.383 139.332 147.573 141.564 147.573C143.797 147.573 145.607 149.383 145.607 151.615C145.607 153.848 143.797 155.658 141.564 155.658Z" fill="#E0E0E0"/>
</g>
<defs>
<linearGradient id="paint0_linear" x1="51.9757" y1="193.434" x2="51.9757" y2="158.196" gradientUnits="userSpaceOnUse">
<stop stop-color="#808080" stop-opacity="0.25"/>
<stop offset="0.53514" stop-color="#808080" stop-opacity="0.12"/>
<stop offset="1" stop-color="#808080" stop-opacity="0.1"/>
</linearGradient>
<linearGradient id="paint1_linear" x1="-102272" y1="356121" x2="-102272" y2="32795.4" gradientUnits="userSpaceOnUse">
<stop stop-color="#808080" stop-opacity="0.25"/>
<stop offset="0.53514" stop-color="#808080" stop-opacity="0.12"/>
<stop offset="1" stop-color="#808080" stop-opacity="0.1"/>
</linearGradient>
<linearGradient id="paint2_linear" x1="-1024.31" y1="1079.68" x2="-1024.31" y2="1074.48" gradientUnits="userSpaceOnUse">
<stop stop-color="#808080" stop-opacity="0.25"/>
<stop offset="0.53514" stop-color="#808080" stop-opacity="0.12"/>
<stop offset="1" stop-color="#808080" stop-opacity="0.1"/>
</linearGradient>
<linearGradient id="paint3_linear" x1="-85301" y1="31259" x2="-85301" y2="16822.7" gradientUnits="userSpaceOnUse">
<stop stop-color="#808080" stop-opacity="0.25"/>
<stop offset="0.53514" stop-color="#808080" stop-opacity="0.12"/>
<stop offset="1" stop-color="#808080" stop-opacity="0.1"/>
</linearGradient>
<clipPath id="clip0">
<rect width="522" height="432.13" fill="white" transform="matrix(-1 0 0 1 522 0)"/>
</clipPath>
</defs>
</svg>
